<mxfile host="app.diagrams.net" modified="2021-08-17T23:05:14.932Z" agent="5.0 (Macintosh; Intel Mac OS X 10_15_7) AppleWebKit/605.1.15 (KHTML, like Gecko) Version/14.0.1 Safari/605.1.15" etag="NK4KJC0CXezUmz4OZ-6r" version="14.9.6" type="github">
  <diagram id="msztntWeUJczKLSn1g-O" name="Page-1">
    <mxGraphModel dx="679" dy="358" grid="1" gridSize="10" guides="1" tooltips="1" connect="1" arrows="1" fold="1" page="1" pageScale="1" pageWidth="827" pageHeight="1169" math="0" shadow="0">
      <root>
        <mxCell id="0" />
        <mxCell id="1" parent="0" />
        <mxCell id="sE3w0XTqBgx6vdSFThgq-1" style="edgeStyle=orthogonalEdgeStyle;rounded=0;orthogonalLoop=1;jettySize=auto;html=1;exitX=0.25;exitY=1;exitDx=0;exitDy=0;entryX=0.25;entryY=0;entryDx=0;entryDy=0;strokeColor=#FF3333;" edge="1" parent="1" source="sE3w0XTqBgx6vdSFThgq-5" target="sE3w0XTqBgx6vdSFThgq-9">
          <mxGeometry relative="1" as="geometry" />
        </mxCell>
        <mxCell id="sE3w0XTqBgx6vdSFThgq-2" value="A&lt;sub&gt;pp&lt;/sub&gt;,&lt;br&gt;A&lt;sub&gt;ph&lt;/sub&gt;" style="edgeLabel;html=1;align=center;verticalAlign=middle;resizable=0;points=[];" vertex="1" connectable="0" parent="sE3w0XTqBgx6vdSFThgq-1">
          <mxGeometry x="-0.1417" relative="1" as="geometry">
            <mxPoint as="offset" />
          </mxGeometry>
        </mxCell>
        <mxCell id="sE3w0XTqBgx6vdSFThgq-3" style="edgeStyle=orthogonalEdgeStyle;rounded=0;orthogonalLoop=1;jettySize=auto;html=1;exitX=0.5;exitY=0;exitDx=0;exitDy=0;entryX=0.5;entryY=1;entryDx=0;entryDy=0;endArrow=classic;endFill=1;" edge="1" parent="1" source="sE3w0XTqBgx6vdSFThgq-5" target="sE3w0XTqBgx6vdSFThgq-22">
          <mxGeometry relative="1" as="geometry" />
        </mxCell>
        <mxCell id="sE3w0XTqBgx6vdSFThgq-4" value="&lt;span style=&quot;color: rgb(32 , 33 , 34) ; font-family: sans-serif ; font-size: 12.319999694824219px ; text-align: left ; background-color: rgb(248 , 249 , 250)&quot;&gt;γ&lt;sub&gt;p&lt;/sub&gt;&lt;/span&gt;" style="edgeLabel;html=1;align=center;verticalAlign=middle;resizable=0;points=[];" vertex="1" connectable="0" parent="sE3w0XTqBgx6vdSFThgq-3">
          <mxGeometry x="-0.032" y="-1" relative="1" as="geometry">
            <mxPoint as="offset" />
          </mxGeometry>
        </mxCell>
        <mxCell id="sE3w0XTqBgx6vdSFThgq-5" value="&lt;b&gt;p&lt;/b&gt;" style="rounded=1;whiteSpace=wrap;html=1;" vertex="1" parent="1">
          <mxGeometry x="240" y="430" width="60" height="30" as="geometry" />
        </mxCell>
        <mxCell id="sE3w0XTqBgx6vdSFThgq-6" style="edgeStyle=orthogonalEdgeStyle;rounded=0;orthogonalLoop=1;jettySize=auto;html=1;exitX=0.5;exitY=0;exitDx=0;exitDy=0;endArrow=oval;endFill=1;strokeColor=#FF3333;" edge="1" parent="1" source="sE3w0XTqBgx6vdSFThgq-9">
          <mxGeometry relative="1" as="geometry">
            <mxPoint x="270" y="534" as="sourcePoint" />
            <mxPoint x="270" y="464" as="targetPoint" />
          </mxGeometry>
        </mxCell>
        <mxCell id="sE3w0XTqBgx6vdSFThgq-7" style="edgeStyle=orthogonalEdgeStyle;rounded=0;orthogonalLoop=1;jettySize=auto;html=1;exitX=0.5;exitY=1;exitDx=0;exitDy=0;endArrow=classic;endFill=1;entryX=0.5;entryY=0;entryDx=0;entryDy=0;" edge="1" parent="1" source="sE3w0XTqBgx6vdSFThgq-9" target="sE3w0XTqBgx6vdSFThgq-24">
          <mxGeometry relative="1" as="geometry">
            <mxPoint x="270" y="610" as="targetPoint" />
          </mxGeometry>
        </mxCell>
        <mxCell id="sE3w0XTqBgx6vdSFThgq-8" value="&lt;span style=&quot;color: rgb(32 , 33 , 34) ; font-family: sans-serif ; font-size: 12.319999694824219px ; text-align: left ; background-color: rgb(248 , 249 , 250)&quot;&gt;γ&lt;/span&gt;&lt;sub style=&quot;color: rgb(32 , 33 , 34) ; font-family: sans-serif ; text-align: left ; background-color: rgb(248 , 249 , 250)&quot;&gt;a&lt;/sub&gt;" style="edgeLabel;html=1;align=center;verticalAlign=middle;resizable=0;points=[];" vertex="1" connectable="0" parent="sE3w0XTqBgx6vdSFThgq-7">
          <mxGeometry x="-0.2148" y="1" relative="1" as="geometry">
            <mxPoint as="offset" />
          </mxGeometry>
        </mxCell>
        <mxCell id="sE3w0XTqBgx6vdSFThgq-9" value="&lt;b&gt;a&lt;/b&gt;" style="rounded=1;whiteSpace=wrap;html=1;" vertex="1" parent="1">
          <mxGeometry x="240" y="540" width="60" height="30" as="geometry" />
        </mxCell>
        <mxCell id="sE3w0XTqBgx6vdSFThgq-10" style="edgeStyle=orthogonalEdgeStyle;rounded=0;orthogonalLoop=1;jettySize=auto;html=1;entryX=1;entryY=0.25;entryDx=0;entryDy=0;strokeColor=#0000CC;" edge="1" parent="1" source="sE3w0XTqBgx6vdSFThgq-15" target="sE3w0XTqBgx6vdSFThgq-5">
          <mxGeometry relative="1" as="geometry">
            <Array as="points">
              <mxPoint x="510" y="485" />
              <mxPoint x="510" y="438" />
            </Array>
          </mxGeometry>
        </mxCell>
        <mxCell id="sE3w0XTqBgx6vdSFThgq-11" value="P&lt;sub&gt;fp&lt;/sub&gt;" style="edgeLabel;html=1;align=center;verticalAlign=middle;resizable=0;points=[];" vertex="1" connectable="0" parent="sE3w0XTqBgx6vdSFThgq-10">
          <mxGeometry x="-0.1247" relative="1" as="geometry">
            <mxPoint as="offset" />
          </mxGeometry>
        </mxCell>
        <mxCell id="sE3w0XTqBgx6vdSFThgq-12" style="edgeStyle=orthogonalEdgeStyle;rounded=0;orthogonalLoop=1;jettySize=auto;html=1;exitX=0.5;exitY=1;exitDx=0;exitDy=0;entryX=1;entryY=0.5;entryDx=0;entryDy=0;endArrow=classic;endFill=1;strokeColor=#FF3333;" edge="1" parent="1" source="sE3w0XTqBgx6vdSFThgq-15" target="sE3w0XTqBgx6vdSFThgq-9">
          <mxGeometry relative="1" as="geometry" />
        </mxCell>
        <mxCell id="sE3w0XTqBgx6vdSFThgq-13" value="A&lt;sub&gt;fp&lt;/sub&gt;&lt;span style=&quot;font-size: 9.166666030883789px&quot;&gt;,&amp;nbsp;&lt;/span&gt;A&lt;sub&gt;fh&lt;/sub&gt;" style="edgeLabel;html=1;align=center;verticalAlign=middle;resizable=0;points=[];" vertex="1" connectable="0" parent="sE3w0XTqBgx6vdSFThgq-12">
          <mxGeometry x="0.0306" y="-1" relative="1" as="geometry">
            <mxPoint as="offset" />
          </mxGeometry>
        </mxCell>
        <mxCell id="sE3w0XTqBgx6vdSFThgq-14" style="edgeStyle=orthogonalEdgeStyle;rounded=0;orthogonalLoop=1;jettySize=auto;html=1;exitX=0.5;exitY=0;exitDx=0;exitDy=0;endArrow=classic;endFill=1;entryX=0.5;entryY=1;entryDx=0;entryDy=0;" edge="1" parent="1" source="sE3w0XTqBgx6vdSFThgq-15" target="sE3w0XTqBgx6vdSFThgq-19">
          <mxGeometry relative="1" as="geometry">
            <mxPoint x="620" y="443" as="targetPoint" />
          </mxGeometry>
        </mxCell>
        <mxCell id="sE3w0XTqBgx6vdSFThgq-15" value="&lt;b&gt;f&lt;/b&gt;" style="rounded=1;whiteSpace=wrap;html=1;" vertex="1" parent="1">
          <mxGeometry x="560" y="473" width="60" height="30" as="geometry" />
        </mxCell>
        <mxCell id="sE3w0XTqBgx6vdSFThgq-16" style="edgeStyle=orthogonalEdgeStyle;rounded=0;orthogonalLoop=1;jettySize=auto;html=1;exitX=0.5;exitY=1;exitDx=0;exitDy=0;entryX=0.5;entryY=0;entryDx=0;entryDy=0;endArrow=classic;endFill=1;" edge="1" parent="1" source="sE3w0XTqBgx6vdSFThgq-18" target="sE3w0XTqBgx6vdSFThgq-26">
          <mxGeometry relative="1" as="geometry" />
        </mxCell>
        <mxCell id="sE3w0XTqBgx6vdSFThgq-17" value="&lt;span style=&quot;color: rgb(32 , 33 , 34) ; font-family: sans-serif ; font-size: 12.319999694824219px ; text-align: left ; background-color: rgb(248 , 249 , 250)&quot;&gt;γ&lt;/span&gt;&lt;sub style=&quot;color: rgb(32 , 33 , 34) ; font-family: sans-serif ; text-align: left ; background-color: rgb(248 , 249 , 250)&quot;&gt;m&lt;/sub&gt;" style="edgeLabel;html=1;align=center;verticalAlign=middle;resizable=0;points=[];" vertex="1" connectable="0" parent="sE3w0XTqBgx6vdSFThgq-16">
          <mxGeometry x="-0.3003" relative="1" as="geometry">
            <mxPoint as="offset" />
          </mxGeometry>
        </mxCell>
        <mxCell id="sE3w0XTqBgx6vdSFThgq-18" value="&lt;b&gt;m&lt;/b&gt;" style="rounded=1;whiteSpace=wrap;html=1;" vertex="1" parent="1">
          <mxGeometry x="402" y="480" width="60" height="30" as="geometry" />
        </mxCell>
        <mxCell id="sE3w0XTqBgx6vdSFThgq-19" value="" style="ellipse;whiteSpace=wrap;html=1;aspect=fixed;" vertex="1" parent="1">
          <mxGeometry x="585" y="428" width="10" height="10" as="geometry" />
        </mxCell>
        <mxCell id="sE3w0XTqBgx6vdSFThgq-20" value="" style="endArrow=none;html=1;" edge="1" parent="1">
          <mxGeometry width="50" height="50" relative="1" as="geometry">
            <mxPoint x="582" y="443" as="sourcePoint" />
            <mxPoint x="598" y="423" as="targetPoint" />
          </mxGeometry>
        </mxCell>
        <mxCell id="sE3w0XTqBgx6vdSFThgq-21" value="&lt;div class=&quot;page&quot; title=&quot;Page 1&quot;&gt;&lt;div class=&quot;section&quot; style=&quot;background-color: rgb(255 , 255 , 255)&quot;&gt;&lt;div class=&quot;layoutArea&quot;&gt;&lt;div class=&quot;column&quot;&gt;&lt;p&gt;&lt;span style=&quot;font-family: &amp;#34;calibri&amp;#34;&quot;&gt;&lt;font style=&quot;font-size: 10px&quot;&gt;reproduced from Baker et al 2017&lt;/font&gt;&lt;/span&gt;&lt;/p&gt;&lt;/div&gt;&lt;/div&gt;&lt;/div&gt;&lt;/div&gt;" style="text;html=1;align=center;verticalAlign=middle;resizable=0;points=[];autosize=1;strokeColor=none;" vertex="1" parent="1">
          <mxGeometry x="265" y="707" width="150" height="40" as="geometry" />
        </mxCell>
        <mxCell id="sE3w0XTqBgx6vdSFThgq-22" value="" style="ellipse;whiteSpace=wrap;html=1;aspect=fixed;" vertex="1" parent="1">
          <mxGeometry x="265" y="365" width="10" height="10" as="geometry" />
        </mxCell>
        <mxCell id="sE3w0XTqBgx6vdSFThgq-23" value="" style="endArrow=none;html=1;" edge="1" parent="1">
          <mxGeometry width="50" height="50" relative="1" as="geometry">
            <mxPoint x="262" y="380.0000000000001" as="sourcePoint" />
            <mxPoint x="278" y="360.0000000000001" as="targetPoint" />
          </mxGeometry>
        </mxCell>
        <mxCell id="sE3w0XTqBgx6vdSFThgq-24" value="" style="ellipse;whiteSpace=wrap;html=1;aspect=fixed;" vertex="1" parent="1">
          <mxGeometry x="265" y="615" width="10" height="10" as="geometry" />
        </mxCell>
        <mxCell id="sE3w0XTqBgx6vdSFThgq-25" value="" style="endArrow=none;html=1;" edge="1" parent="1">
          <mxGeometry width="50" height="50" relative="1" as="geometry">
            <mxPoint x="262" y="630.0000000000002" as="sourcePoint" />
            <mxPoint x="278" y="610.0000000000002" as="targetPoint" />
          </mxGeometry>
        </mxCell>
        <mxCell id="sE3w0XTqBgx6vdSFThgq-26" value="" style="ellipse;whiteSpace=wrap;html=1;aspect=fixed;" vertex="1" parent="1">
          <mxGeometry x="427" y="585" width="10" height="10" as="geometry" />
        </mxCell>
        <mxCell id="sE3w0XTqBgx6vdSFThgq-27" value="" style="endArrow=none;html=1;" edge="1" parent="1">
          <mxGeometry width="50" height="50" relative="1" as="geometry">
            <mxPoint x="424" y="600.0000000000002" as="sourcePoint" />
            <mxPoint x="440" y="580.0000000000002" as="targetPoint" />
          </mxGeometry>
        </mxCell>
        <mxCell id="sE3w0XTqBgx6vdSFThgq-28" style="edgeStyle=orthogonalEdgeStyle;rounded=0;orthogonalLoop=1;jettySize=auto;html=1;entryX=1.053;entryY=0.54;entryDx=0;entryDy=0;entryPerimeter=0;endArrow=classic;endFill=1;" edge="1" parent="1" source="sE3w0XTqBgx6vdSFThgq-30" target="sE3w0XTqBgx6vdSFThgq-15">
          <mxGeometry relative="1" as="geometry" />
        </mxCell>
        <mxCell id="sE3w0XTqBgx6vdSFThgq-29" value="F&lt;sub&gt;dam&lt;/sub&gt;" style="edgeLabel;html=1;align=center;verticalAlign=middle;resizable=0;points=[];" vertex="1" connectable="0" parent="sE3w0XTqBgx6vdSFThgq-28">
          <mxGeometry x="0.0446" y="-1" relative="1" as="geometry">
            <mxPoint x="-1" as="offset" />
          </mxGeometry>
        </mxCell>
        <mxCell id="sE3w0XTqBgx6vdSFThgq-30" value="Mechanical &lt;br&gt;damage&lt;br&gt;to ECM" style="text;html=1;align=center;verticalAlign=middle;resizable=0;points=[];autosize=1;strokeColor=none;" vertex="1" parent="1">
          <mxGeometry x="690" y="464" width="80" height="50" as="geometry" />
        </mxCell>
        <mxCell id="sE3w0XTqBgx6vdSFThgq-31" style="edgeStyle=orthogonalEdgeStyle;rounded=0;orthogonalLoop=1;jettySize=auto;html=1;entryX=0;entryY=0.5;entryDx=0;entryDy=0;endArrow=classic;endFill=1;" edge="1" parent="1" source="sE3w0XTqBgx6vdSFThgq-33" target="sE3w0XTqBgx6vdSFThgq-5">
          <mxGeometry relative="1" as="geometry">
            <Array as="points">
              <mxPoint x="210" y="445" />
              <mxPoint x="210" y="445" />
            </Array>
          </mxGeometry>
        </mxCell>
        <mxCell id="sE3w0XTqBgx6vdSFThgq-32" value="P&lt;sub&gt;bp&lt;/sub&gt;" style="edgeLabel;html=1;align=center;verticalAlign=middle;resizable=0;points=[];" vertex="1" connectable="0" parent="sE3w0XTqBgx6vdSFThgq-31">
          <mxGeometry x="-0.2362" y="-1" relative="1" as="geometry">
            <mxPoint as="offset" />
          </mxGeometry>
        </mxCell>
        <mxCell id="sE3w0XTqBgx6vdSFThgq-33" value="Background&lt;br&gt;Production" style="text;html=1;align=center;verticalAlign=middle;resizable=0;points=[];autosize=1;strokeColor=none;" vertex="1" parent="1">
          <mxGeometry x="110" y="430" width="80" height="30" as="geometry" />
        </mxCell>
        <mxCell id="sE3w0XTqBgx6vdSFThgq-34" style="edgeStyle=orthogonalEdgeStyle;rounded=0;orthogonalLoop=1;jettySize=auto;html=1;entryX=0.5;entryY=0;entryDx=0;entryDy=0;endArrow=classic;endFill=1;" edge="1" parent="1" source="sE3w0XTqBgx6vdSFThgq-36" target="sE3w0XTqBgx6vdSFThgq-18">
          <mxGeometry relative="1" as="geometry" />
        </mxCell>
        <mxCell id="sE3w0XTqBgx6vdSFThgq-35" value="M&lt;sub&gt;bp&lt;/sub&gt;" style="edgeLabel;html=1;align=center;verticalAlign=middle;resizable=0;points=[];" vertex="1" connectable="0" parent="sE3w0XTqBgx6vdSFThgq-34">
          <mxGeometry x="-0.0143" y="1" relative="1" as="geometry">
            <mxPoint x="1" y="8" as="offset" />
          </mxGeometry>
        </mxCell>
        <mxCell id="sE3w0XTqBgx6vdSFThgq-36" value="Background&lt;br&gt;Production" style="text;html=1;align=center;verticalAlign=middle;resizable=0;points=[];autosize=1;strokeColor=none;" vertex="1" parent="1">
          <mxGeometry x="392" y="375" width="80" height="30" as="geometry" />
        </mxCell>
        <mxCell id="sE3w0XTqBgx6vdSFThgq-37" style="edgeStyle=orthogonalEdgeStyle;rounded=0;orthogonalLoop=1;jettySize=auto;html=1;exitX=0.75;exitY=1;exitDx=0;exitDy=0;entryX=1;entryY=0.75;entryDx=0;entryDy=0;endArrow=classic;endFill=1;strokeColor=#0000CC;" edge="1" parent="1" source="sE3w0XTqBgx6vdSFThgq-5" target="sE3w0XTqBgx6vdSFThgq-5">
          <mxGeometry relative="1" as="geometry">
            <Array as="points">
              <mxPoint x="285" y="480" />
              <mxPoint x="320" y="480" />
              <mxPoint x="320" y="453" />
            </Array>
          </mxGeometry>
        </mxCell>
        <mxCell id="sE3w0XTqBgx6vdSFThgq-38" value="P&lt;sub&gt;pp&lt;/sub&gt;" style="edgeLabel;html=1;align=center;verticalAlign=middle;resizable=0;points=[];" vertex="1" connectable="0" parent="sE3w0XTqBgx6vdSFThgq-37">
          <mxGeometry x="-0.0929" y="-1" relative="1" as="geometry">
            <mxPoint x="-12" y="-1" as="offset" />
          </mxGeometry>
        </mxCell>
        <mxCell id="sE3w0XTqBgx6vdSFThgq-39" value="&lt;div class=&quot;page&quot; title=&quot;Page 1&quot;&gt;&lt;div class=&quot;section&quot; style=&quot;background-color: rgb(255 , 255 , 255)&quot;&gt;&lt;div class=&quot;layoutArea&quot;&gt;&lt;div class=&quot;column&quot;&gt;&lt;p&gt;&lt;span style=&quot;font-family: &amp;#34;calibri&amp;#34;&quot;&gt;&lt;font style=&quot;font-size: 10px&quot;&gt;Complex assembly/deassembly&lt;/font&gt;&lt;/span&gt;&lt;/p&gt;&lt;/div&gt;&lt;/div&gt;&lt;/div&gt;&lt;/div&gt;" style="text;html=1;align=center;verticalAlign=middle;resizable=0;points=[];autosize=1;strokeColor=none;" vertex="1" parent="1">
          <mxGeometry x="594" y="610" width="140" height="40" as="geometry" />
        </mxCell>
        <mxCell id="sE3w0XTqBgx6vdSFThgq-41" value="&lt;div class=&quot;page&quot; title=&quot;Page 1&quot;&gt;&lt;div class=&quot;section&quot; style=&quot;background-color: rgb(255 , 255 , 255)&quot;&gt;&lt;div class=&quot;layoutArea&quot;&gt;&lt;div class=&quot;column&quot;&gt;&lt;p&gt;&lt;span style=&quot;font-family: &amp;#34;calibri&amp;#34;&quot;&gt;&lt;font style=&quot;font-size: 10px&quot;&gt;degradation&lt;/font&gt;&lt;/span&gt;&lt;/p&gt;&lt;/div&gt;&lt;/div&gt;&lt;/div&gt;&lt;/div&gt;" style="text;html=1;align=center;verticalAlign=middle;resizable=0;points=[];autosize=1;strokeColor=none;" vertex="1" parent="1">
          <mxGeometry x="595" y="665" width="60" height="40" as="geometry" />
        </mxCell>
        <mxCell id="sE3w0XTqBgx6vdSFThgq-42" value="&lt;div class=&quot;page&quot; title=&quot;Page 1&quot;&gt;&lt;div class=&quot;section&quot; style=&quot;background-color: rgb(255 , 255 , 255)&quot;&gt;&lt;div class=&quot;layoutArea&quot;&gt;&lt;div class=&quot;column&quot;&gt;&lt;p&gt;&lt;span style=&quot;font-family: &amp;#34;calibri&amp;#34;&quot;&gt;&lt;font style=&quot;font-size: 10px&quot;&gt;Product formation - phosphorylation&lt;/font&gt;&lt;/span&gt;&lt;/p&gt;&lt;/div&gt;&lt;/div&gt;&lt;/div&gt;&lt;/div&gt;" style="text;html=1;align=center;verticalAlign=middle;resizable=0;points=[];autosize=1;strokeColor=none;" vertex="1" parent="1">
          <mxGeometry x="312" y="640" width="160" height="40" as="geometry" />
        </mxCell>
        <mxCell id="sE3w0XTqBgx6vdSFThgq-43" value="&lt;div class=&quot;page&quot; title=&quot;Page 1&quot;&gt;&lt;div class=&quot;section&quot; style=&quot;background-color: rgb(255 , 255 , 255)&quot;&gt;&lt;div class=&quot;layoutArea&quot;&gt;&lt;div class=&quot;column&quot;&gt;&lt;p&gt;&lt;span style=&quot;font-family: &amp;#34;calibri&amp;#34; ; font-size: 10px&quot;&gt;Product formation -&lt;/span&gt;&lt;span style=&quot;font-family: &amp;#34;calibri&amp;#34; ; font-size: 10px&quot;&gt;&amp;nbsp;d&lt;/span&gt;&lt;span style=&quot;font-family: &amp;#34;calibri&amp;#34;&quot;&gt;&lt;font style=&quot;font-size: 10px&quot;&gt;ephosphorylation&lt;/font&gt;&lt;/span&gt;&lt;/p&gt;&lt;/div&gt;&lt;/div&gt;&lt;/div&gt;&lt;/div&gt;" style="text;html=1;align=center;verticalAlign=middle;resizable=0;points=[];autosize=1;strokeColor=none;" vertex="1" parent="1">
          <mxGeometry x="312" y="665" width="170" height="40" as="geometry" />
        </mxCell>
        <mxCell id="sE3w0XTqBgx6vdSFThgq-44" value="" style="ellipse;whiteSpace=wrap;html=1;aspect=fixed;" vertex="1" parent="1">
          <mxGeometry x="582" y="683" width="10" height="10" as="geometry" />
        </mxCell>
        <mxCell id="sE3w0XTqBgx6vdSFThgq-45" value="" style="endArrow=none;html=1;" edge="1" parent="1">
          <mxGeometry width="50" height="50" relative="1" as="geometry">
            <mxPoint x="579" y="698.0000000000002" as="sourcePoint" />
            <mxPoint x="595" y="678.0000000000002" as="targetPoint" />
          </mxGeometry>
        </mxCell>
        <mxCell id="sE3w0XTqBgx6vdSFThgq-46" style="edgeStyle=orthogonalEdgeStyle;rounded=0;orthogonalLoop=1;jettySize=auto;html=1;entryX=0;entryY=0.5;entryDx=0;entryDy=0;endArrow=classic;endFill=1;" edge="1" parent="1" target="sE3w0XTqBgx6vdSFThgq-44">
          <mxGeometry relative="1" as="geometry">
            <mxPoint x="550" y="688" as="sourcePoint" />
            <mxPoint x="490" y="768" as="targetPoint" />
          </mxGeometry>
        </mxCell>
        <mxCell id="sE3w0XTqBgx6vdSFThgq-48" style="edgeStyle=orthogonalEdgeStyle;rounded=0;orthogonalLoop=1;jettySize=auto;html=1;endArrow=classic;endFill=1;" edge="1" parent="1">
          <mxGeometry relative="1" as="geometry">
            <mxPoint x="550" y="633" as="sourcePoint" />
            <mxPoint x="595" y="633" as="targetPoint" />
            <Array as="points">
              <mxPoint x="560" y="633" />
              <mxPoint x="560" y="633" />
            </Array>
          </mxGeometry>
        </mxCell>
        <mxCell id="sE3w0XTqBgx6vdSFThgq-49" style="edgeStyle=orthogonalEdgeStyle;rounded=0;orthogonalLoop=1;jettySize=auto;html=1;endArrow=none;endFill=0;strokeColor=#0000CC;" edge="1" parent="1">
          <mxGeometry relative="1" as="geometry">
            <mxPoint x="267" y="661.7600000000002" as="sourcePoint" />
            <mxPoint x="312" y="661.7600000000002" as="targetPoint" />
            <Array as="points">
              <mxPoint x="277" y="661.76" />
              <mxPoint x="277" y="661.76" />
            </Array>
          </mxGeometry>
        </mxCell>
        <mxCell id="sE3w0XTqBgx6vdSFThgq-50" style="edgeStyle=orthogonalEdgeStyle;rounded=0;orthogonalLoop=1;jettySize=auto;html=1;endArrow=none;endFill=0;strokeColor=#FF3333;" edge="1" parent="1">
          <mxGeometry relative="1" as="geometry">
            <mxPoint x="267" y="686.76" as="sourcePoint" />
            <mxPoint x="312" y="686.76" as="targetPoint" />
            <Array as="points">
              <mxPoint x="277" y="686.76" />
              <mxPoint x="277" y="686.76" />
            </Array>
          </mxGeometry>
        </mxCell>
        <mxCell id="sE3w0XTqBgx6vdSFThgq-51" style="rounded=0;orthogonalLoop=1;jettySize=auto;html=1;strokeColor=#FF3333;edgeStyle=orthogonalEdgeStyle;endArrow=classic;endFill=1;" edge="1" parent="1">
          <mxGeometry relative="1" as="geometry">
            <mxPoint x="462" y="495" as="sourcePoint" />
            <mxPoint x="560" y="495" as="targetPoint" />
            <Array as="points">
              <mxPoint x="462" y="495" />
              <mxPoint x="560" y="495" />
            </Array>
          </mxGeometry>
        </mxCell>
        <mxCell id="sE3w0XTqBgx6vdSFThgq-52" style="rounded=0;orthogonalLoop=1;jettySize=auto;html=1;edgeStyle=orthogonalEdgeStyle;endArrow=openAsync;endFill=0;strokeColor=#0000CC;exitX=1;exitY=0.5;exitDx=0;exitDy=0;dashed=1;" edge="1" parent="1" source="sE3w0XTqBgx6vdSFThgq-18">
          <mxGeometry relative="1" as="geometry">
            <mxPoint x="462" y="494.94" as="sourcePoint" />
            <mxPoint x="560" y="495" as="targetPoint" />
            <Array as="points">
              <mxPoint x="560" y="495" />
            </Array>
          </mxGeometry>
        </mxCell>
        <mxCell id="sE3w0XTqBgx6vdSFThgq-53" style="rounded=0;orthogonalLoop=1;jettySize=auto;html=1;strokeColor=#FF3333;edgeStyle=orthogonalEdgeStyle;endArrow=classic;endFill=1;entryX=0;entryY=0.5;entryDx=0;entryDy=0;" edge="1" parent="1" target="sE3w0XTqBgx6vdSFThgq-18">
          <mxGeometry relative="1" as="geometry">
            <mxPoint x="300" y="445" as="sourcePoint" />
            <mxPoint x="418" y="444.8" as="targetPoint" />
            <Array as="points">
              <mxPoint x="350" y="445" />
              <mxPoint x="350" y="495" />
            </Array>
          </mxGeometry>
        </mxCell>
        <mxCell id="sE3w0XTqBgx6vdSFThgq-54" style="rounded=0;orthogonalLoop=1;jettySize=auto;html=1;edgeStyle=orthogonalEdgeStyle;endArrow=openAsync;endFill=0;strokeColor=#0000CC;exitX=1;exitY=0.5;exitDx=0;exitDy=0;dashed=1;entryX=0;entryY=0.5;entryDx=0;entryDy=0;" edge="1" parent="1" source="sE3w0XTqBgx6vdSFThgq-5" target="sE3w0XTqBgx6vdSFThgq-18">
          <mxGeometry relative="1" as="geometry">
            <mxPoint x="320" y="444.8" as="sourcePoint" />
            <mxPoint x="418" y="470" as="targetPoint" />
            <Array as="points">
              <mxPoint x="350" y="445" />
              <mxPoint x="350" y="495" />
            </Array>
          </mxGeometry>
        </mxCell>
        <mxCell id="sE3w0XTqBgx6vdSFThgq-55" value="M&lt;sub&gt;pp&lt;/sub&gt;,&lt;br&gt;M&lt;sub&gt;ph&lt;/sub&gt;" style="edgeLabel;html=1;align=center;verticalAlign=middle;resizable=0;points=[];" vertex="1" connectable="0" parent="sE3w0XTqBgx6vdSFThgq-54">
          <mxGeometry x="-0.1184" relative="1" as="geometry">
            <mxPoint y="7" as="offset" />
          </mxGeometry>
        </mxCell>
        <mxCell id="sE3w0XTqBgx6vdSFThgq-71" style="edgeStyle=orthogonalEdgeStyle;rounded=0;orthogonalLoop=1;jettySize=auto;html=1;exitX=1;exitY=0.75;exitDx=0;exitDy=0;entryX=0;entryY=0.25;entryDx=0;entryDy=0;" edge="1" parent="1" source="sE3w0XTqBgx6vdSFThgq-56" target="sE3w0XTqBgx6vdSFThgq-57">
          <mxGeometry relative="1" as="geometry" />
        </mxCell>
        <mxCell id="sE3w0XTqBgx6vdSFThgq-56" value="&lt;b&gt;X&lt;/b&gt;" style="rounded=1;whiteSpace=wrap;html=1;" vertex="1" parent="1">
          <mxGeometry x="275" y="161" width="60" height="30" as="geometry" />
        </mxCell>
        <mxCell id="sE3w0XTqBgx6vdSFThgq-72" style="edgeStyle=orthogonalEdgeStyle;rounded=0;orthogonalLoop=1;jettySize=auto;html=1;exitX=0;exitY=0.75;exitDx=0;exitDy=0;entryX=0.981;entryY=0.638;entryDx=0;entryDy=0;entryPerimeter=0;" edge="1" parent="1" source="sE3w0XTqBgx6vdSFThgq-57" target="sE3w0XTqBgx6vdSFThgq-60">
          <mxGeometry relative="1" as="geometry">
            <Array as="points">
              <mxPoint x="350" y="155" />
              <mxPoint x="350" y="129" />
            </Array>
          </mxGeometry>
        </mxCell>
        <mxCell id="sE3w0XTqBgx6vdSFThgq-73" style="edgeStyle=orthogonalEdgeStyle;rounded=0;orthogonalLoop=1;jettySize=auto;html=1;exitX=0;exitY=0.75;exitDx=0;exitDy=0;entryX=1;entryY=0.25;entryDx=0;entryDy=0;" edge="1" parent="1" source="sE3w0XTqBgx6vdSFThgq-57" target="sE3w0XTqBgx6vdSFThgq-56">
          <mxGeometry relative="1" as="geometry">
            <mxPoint x="340" y="176" as="targetPoint" />
            <Array as="points">
              <mxPoint x="350" y="155" />
              <mxPoint x="350" y="169" />
            </Array>
          </mxGeometry>
        </mxCell>
        <mxCell id="sE3w0XTqBgx6vdSFThgq-57" value="&lt;b&gt;XK&lt;/b&gt;" style="rounded=1;whiteSpace=wrap;html=1;" vertex="1" parent="1">
          <mxGeometry x="427" y="132" width="60" height="30" as="geometry" />
        </mxCell>
        <mxCell id="sE3w0XTqBgx6vdSFThgq-75" style="edgeStyle=orthogonalEdgeStyle;rounded=0;orthogonalLoop=1;jettySize=auto;html=1;exitX=1;exitY=0.75;exitDx=0;exitDy=0;entryX=0;entryY=0.75;entryDx=0;entryDy=0;" edge="1" parent="1" source="sE3w0XTqBgx6vdSFThgq-58" target="sE3w0XTqBgx6vdSFThgq-59">
          <mxGeometry relative="1" as="geometry">
            <mxPoint x="335" y="294.5" as="sourcePoint" />
            <Array as="points">
              <mxPoint x="400" y="288" />
              <mxPoint x="400" y="270" />
            </Array>
          </mxGeometry>
        </mxCell>
        <mxCell id="sE3w0XTqBgx6vdSFThgq-76" style="edgeStyle=orthogonalEdgeStyle;rounded=0;orthogonalLoop=1;jettySize=auto;html=1;exitX=1;exitY=0.75;exitDx=0;exitDy=0;entryX=0;entryY=0.25;entryDx=0;entryDy=0;" edge="1" parent="1" source="sE3w0XTqBgx6vdSFThgq-58" target="sE3w0XTqBgx6vdSFThgq-61">
          <mxGeometry relative="1" as="geometry">
            <mxPoint x="335" y="294.5" as="sourcePoint" />
            <Array as="points">
              <mxPoint x="400" y="288" />
              <mxPoint x="400" y="305" />
              <mxPoint x="427" y="305" />
            </Array>
          </mxGeometry>
        </mxCell>
        <mxCell id="sE3w0XTqBgx6vdSFThgq-58" value="&lt;b&gt;YP&lt;/b&gt;" style="rounded=1;whiteSpace=wrap;html=1;" vertex="1" parent="1">
          <mxGeometry x="275" y="265" width="60" height="30" as="geometry" />
        </mxCell>
        <mxCell id="sE3w0XTqBgx6vdSFThgq-67" style="edgeStyle=orthogonalEdgeStyle;rounded=0;orthogonalLoop=1;jettySize=auto;html=1;exitX=0;exitY=0.25;exitDx=0;exitDy=0;" edge="1" parent="1" source="sE3w0XTqBgx6vdSFThgq-59">
          <mxGeometry relative="1" as="geometry">
            <mxPoint x="335" y="280" as="targetPoint" />
            <Array as="points">
              <mxPoint x="360" y="255" />
              <mxPoint x="360" y="280" />
            </Array>
          </mxGeometry>
        </mxCell>
        <mxCell id="sE3w0XTqBgx6vdSFThgq-59" value="&lt;b&gt;Y&lt;/b&gt;" style="rounded=1;whiteSpace=wrap;html=1;" vertex="1" parent="1">
          <mxGeometry x="427" y="247" width="60" height="30" as="geometry" />
        </mxCell>
        <mxCell id="sE3w0XTqBgx6vdSFThgq-62" style="edgeStyle=orthogonalEdgeStyle;rounded=0;orthogonalLoop=1;jettySize=auto;html=1;exitX=1;exitY=0.25;exitDx=0;exitDy=0;entryX=0;entryY=0.25;entryDx=0;entryDy=0;" edge="1" parent="1" source="sE3w0XTqBgx6vdSFThgq-60" target="sE3w0XTqBgx6vdSFThgq-57">
          <mxGeometry relative="1" as="geometry">
            <mxPoint x="500" y="110" as="targetPoint" />
          </mxGeometry>
        </mxCell>
        <mxCell id="sE3w0XTqBgx6vdSFThgq-60" value="&lt;b&gt;K&lt;/b&gt;" style="rounded=1;whiteSpace=wrap;html=1;" vertex="1" parent="1">
          <mxGeometry x="275" y="110" width="60" height="30" as="geometry" />
        </mxCell>
        <mxCell id="sE3w0XTqBgx6vdSFThgq-74" style="edgeStyle=orthogonalEdgeStyle;rounded=0;orthogonalLoop=1;jettySize=auto;html=1;entryX=1;entryY=0.25;entryDx=0;entryDy=0;exitX=0;exitY=0.75;exitDx=0;exitDy=0;" edge="1" parent="1" source="sE3w0XTqBgx6vdSFThgq-61">
          <mxGeometry relative="1" as="geometry">
            <mxPoint x="427" y="347" as="sourcePoint" />
            <mxPoint x="335" y="279.5" as="targetPoint" />
            <Array as="points">
              <mxPoint x="360" y="320" />
              <mxPoint x="360" y="280" />
            </Array>
          </mxGeometry>
        </mxCell>
        <mxCell id="sE3w0XTqBgx6vdSFThgq-61" value="&lt;b&gt;P&lt;/b&gt;" style="rounded=1;whiteSpace=wrap;html=1;" vertex="1" parent="1">
          <mxGeometry x="427" y="297" width="60" height="30" as="geometry" />
        </mxCell>
        <mxCell id="sE3w0XTqBgx6vdSFThgq-77" style="edgeStyle=orthogonalEdgeStyle;rounded=0;orthogonalLoop=1;jettySize=auto;html=1;strokeColor=#0000CC;exitX=0.5;exitY=1;exitDx=0;exitDy=0;entryX=0.5;entryY=0;entryDx=0;entryDy=0;" edge="1" parent="1" source="sE3w0XTqBgx6vdSFThgq-57" target="sE3w0XTqBgx6vdSFThgq-59">
          <mxGeometry relative="1" as="geometry">
            <Array as="points" />
            <mxPoint x="402" y="367.4999999999999" as="sourcePoint" />
            <mxPoint x="560" y="220" as="targetPoint" />
          </mxGeometry>
        </mxCell>
        <mxCell id="sE3w0XTqBgx6vdSFThgq-78" value="P&lt;sub&gt;fp&lt;/sub&gt;" style="edgeLabel;html=1;align=center;verticalAlign=middle;resizable=0;points=[];" vertex="1" connectable="0" parent="sE3w0XTqBgx6vdSFThgq-77">
          <mxGeometry x="-0.1247" relative="1" as="geometry">
            <mxPoint as="offset" />
          </mxGeometry>
        </mxCell>
        <mxCell id="sE3w0XTqBgx6vdSFThgq-79" style="edgeStyle=orthogonalEdgeStyle;rounded=0;orthogonalLoop=1;jettySize=auto;html=1;exitX=0.5;exitY=0;exitDx=0;exitDy=0;entryX=0.5;entryY=1;entryDx=0;entryDy=0;strokeColor=#FF3333;" edge="1" parent="1" source="sE3w0XTqBgx6vdSFThgq-58" target="sE3w0XTqBgx6vdSFThgq-56">
          <mxGeometry relative="1" as="geometry">
            <mxPoint x="220" y="220" as="sourcePoint" />
            <mxPoint x="220" y="300" as="targetPoint" />
          </mxGeometry>
        </mxCell>
        <mxCell id="sE3w0XTqBgx6vdSFThgq-80" value="A&lt;sub&gt;pp&lt;/sub&gt;,&lt;br&gt;A&lt;sub&gt;ph&lt;/sub&gt;" style="edgeLabel;html=1;align=center;verticalAlign=middle;resizable=0;points=[];" vertex="1" connectable="0" parent="sE3w0XTqBgx6vdSFThgq-79">
          <mxGeometry x="-0.1417" relative="1" as="geometry">
            <mxPoint as="offset" />
          </mxGeometry>
        </mxCell>
      </root>
    </mxGraphModel>
  </diagram>
</mxfile>
